# xmcd
#
# Track frame offsets:
#	150
#	11888
#	26700
#	41075
#	57635
#	75390
#	88120
#	98585
#	115895
#	127660
#	140663
#	155815
#
# Disc length: 2276 seconds
#
# Revision: 1
# Processed by: cddbd v1.5.2PL0 Copyright (c) Steve Scherf et al.
# Submitted via: audiograbber 1.83.01
#
DISCID=9d08e20c
DTITLE=Jairo and Ricardo - J&R
DYEAR=2009
DGENRE=Country
TTITLE0=Chora Agora
TTITLE1=Vou Me Declarar
TTITLE2=Fala Pra Ela
TTITLE3=A Cidade Dormiu
TTITLE4=Tô Voltando Sertão
TTITLE5=Tá Fazendo Falta
TTITLE6=Vida de Universitário
TTITLE7=Procurando Um Grande Amor
TTITLE8=Perdoa
TTITLE9=Morrer de Pinga
TTITLE10=Tô Legal
TTITLE11=Liga Não
EXTD=
EXTT0=
EXTT1=
EXTT2=
EXTT3=
EXTT4=
EXTT5=
EXTT6=
EXTT7=
EXTT8=
EXTT9=
EXTT10=
EXTT11=
PLAYORDER=
